<svg width="24" height="24" viewBox="0 0 24 24" xmlns="http://www.w3.org/2000/svg">
  <path
    d="M20.6595 6.98022C19.7652 5.4482 18.5522 4.23515 17.0204 3.34112C15.4881 2.44689 13.8153 2 12.0006 2C10.1863 2 8.51308 2.44692 6.98082 3.34112C5.4486 4.23515 4.23555 5.4482 3.34152 6.98022C2.44709 8.51244 2 10.1857 2 12C2 13.8142 2.44711 15.4873 3.34112 17.0198C4.23535 18.5516 5.44835 19.7648 6.98042 20.6589C8.51264 21.5531 10.1857 22 12.0002 22C13.8144 22 15.4877 21.5531 17.02 20.6589C18.552 19.7648 19.765 18.5516 20.6591 17.0198C21.5531 15.4876 22 13.8143 22 12C22.0004 10.1857 21.5533 8.51249 20.6594 6.98022H20.6595ZM18.1334 15.5546C17.4998 16.6396 16.6405 17.4989 15.5552 18.1329C14.4702 18.7665 13.2853 19.0832 12.0004 19.0832C10.7157 19.0832 9.53104 18.7667 8.44572 18.1329C7.36079 17.4991 6.50142 16.6398 5.86768 15.5546C5.23408 14.4697 4.91738 13.2848 4.91738 11.9999C4.91738 10.7152 5.23427 9.5303 5.86802 8.44518C6.50162 7.36025 7.36094 6.50069 8.44606 5.86694C9.53099 5.23354 10.7159 4.91664 12.0006 4.91664C13.2853 4.91664 14.4702 5.23333 15.5553 5.86709C16.6404 6.50069 17.4998 7.3602 18.1336 8.44532C18.7672 9.53025 19.0837 10.7151 19.0837 11.9999C19.0837 13.2848 18.7672 14.4696 18.1334 15.5546L18.1334 15.5546Z"/>
  <path
    d="M12.0006 8.6665C11.0804 8.6665 10.2948 8.99206 9.64372 9.64299C8.99281 10.2941 8.66724 11.0797 8.66724 11.9999C8.66724 12.9201 8.9926 13.7057 9.64372 14.3566C10.2948 15.0077 11.0804 15.3333 12.0006 15.3333C12.9209 15.3333 13.7064 15.0077 14.3575 14.3566C15.0085 13.7057 15.334 12.9201 15.334 11.9999C15.334 11.0797 15.0085 10.2941 14.3575 9.64299C13.7064 8.99208 12.9209 8.6665 12.0006 8.6665V8.6665Z"/>
</svg>
