<svg width="20" height="20" viewBox="0 0 20 20" xmlns="http://www.w3.org/2000/svg">
  <path
    d="M10 2C5.584 2 2 5.584 2 10C2 14.416 5.584 18 10 18C14.416 18 18 14.416 18 10C18 5.584 14.416 2 10 2ZM10.8 4.64L11.88 3.88C13.336 4.328 14.576 5.288 15.384 6.552L15.072 7.624L13.992 7.992L10.8 5.76V4.64ZM8.12 3.88L9.2 4.64V5.76L6.008 7.992L4.928 7.624L4.616 6.552C5.424 5.296 6.664 4.336 8.12 3.88ZM6.064 14.088L5.152 14.168C4.184 13.048 3.6 11.592 3.6 10C3.6 9.904 3.608 9.816 3.616 9.72L4.416 9.136L5.52 9.52L6.688 12.992L6.064 14.088ZM12 16.072C11.368 16.28 10.696 16.4 10 16.4C9.304 16.4 8.632 16.28 8 16.072L7.448 14.88L7.96 14H12.048L12.56 14.888L12 16.072ZM11.816 12.4H8.184L7.104 9.184L10 7.152L12.904 9.184L11.816 12.4ZM14.848 14.168L13.936 14.088L13.304 12.992L14.472 9.52L15.584 9.144L16.384 9.728C16.392 9.816 16.4 9.904 16.4 10C16.4 11.592 15.816 13.048 14.848 14.168Z"/>
</svg>
