<svg width="20" height="20" viewBox="0 0 20 20" xmlns="http://www.w3.org/2000/svg">
  <path
    d="M10.0001 19.1667C10.9168 19.1667 11.6585 18.425 11.6585 17.5083H8.34179C8.34179 18.425 9.08346 19.1667 10.0001 19.1667ZM15.8335 14.1667V9.16667C15.8335 6.375 13.8668 4.04167 11.2501 3.475V2.5C11.2501 1.80833 10.6918 1.25 10.0001 1.25C9.30846 1.25 8.75012 1.80833 8.75012 2.5V3.475C6.13346 4.04167 4.16679 6.375 4.16679 9.16667V14.1667L3.09179 15.2417C2.56679 15.7667 2.93346 16.6667 3.67512 16.6667H16.3168C17.0585 16.6667 17.4335 15.7667 16.9085 15.2417L15.8335 14.1667Z"
  />
</svg>
