<svg width="24" height="24" viewBox="0 0 24 24" xmlns="http://www.w3.org/2000/svg">
  <path
    d="M6.76268 2.00015H9.39272L14.6069 2H17.237C17.6844 2 17.9312 2.53231 17.6303 2.87916L15.0003 5.91806C14.8916 6.04533 14.7482 6.10167 14.6069 6.10087H9.39272C9.25141 6.10167 9.10809 6.04547 8.9994 5.9182L6.36936 2.87175C6.06851 2.53248 6.31527 2.00015 6.76268 2.00015Z"/>
  <path
    d="M8.35181 16.7783V18.3441C8.35181 19.501 8.89168 20.5345 9.74021 21.2056C10.365 21.6992 11.1517 22.0001 12.0078 22.0001C12.7791 22.0001 13.4886 21.761 14.0826 21.3522C15.0313 20.6888 15.6637 19.5937 15.6637 18.3519V16.7861L8.35181 16.7783Z"/>
  <path
    d="M15.6479 16.8045V11.7361C15.6479 10.1242 14.3289 8.80518 12.717 8.80518H11.2747C9.66274 8.80518 8.34375 10.1242 8.34375 11.7361V16.8045H15.6479Z"/>
</svg>
