<svg width="24" height="24" viewBox="0 0 24 24" xmlns="http://www.w3.org/2000/svg">
  <path
    d="M21 9.40196C21 9.19353 20.8863 9.004 20.6968 8.89035L12.3222 4.15359C12.1517 4.05883 11.9243 4.05883 11.7538 4.15359L8.77902 5.83988V5.38512C8.77902 5.06303 8.53267 4.81667 8.21057 4.81667H7.22529C6.90321 4.81667 6.65685 5.06302 6.65685 5.38512V7.03348L3.30318 8.92818C3.11366 9.02294 3 9.23136 3 9.43979V10.1408C3 10.4629 3.26525 10.7281 3.58732 10.7281H4.64833V18.2122C4.64833 19.1596 5.40614 19.9174 6.35349 19.9174H10.5787L11.9049 17.909L9.91588 14.9914L12.3032 12.7366L11.8863 10.0462L13.8 12.8882L12.2653 14.9345L14.5579 17.625L13.8001 19.8607H17.6464C18.5937 19.8607 19.3515 19.1029 19.3515 18.1555V10.6714H20.4125C20.7346 10.6714 20.9999 10.4062 20.9999 10.0841L21 9.40196Z"/>
</svg>
