<svg width="8" height="15" viewBox="0 0 8 15" xmlns="http://www.w3.org/2000/svg">
  <path
    d="M3.1126 0.833439V2.54389C2.77633 2.58618 2.44486 2.66088 2.12294 2.76682C1.59486 2.94251 1.12398 3.25785 0.760406 3.67928L0.737445 3.70631H0.73759C0.405384 4.11308 0.215307 4.61702 0.19585 5.1418C0.160537 5.71769 0.336959 6.28663 0.691683 6.7418L0.718713 6.77726L0.718859 6.77711C1.04772 7.16644 1.4709 7.46476 1.94799 7.64382C2.42276 7.8198 2.9103 7.95902 3.40628 8.06045C3.77293 8.13965 4.00837 8.19385 4.21878 8.25212H4.24174C4.51669 8.31883 4.74383 8.37914 4.94599 8.43756H4.94584C5.18606 8.50891 5.41466 8.61412 5.62508 8.75014C5.74424 8.82556 5.84583 8.92569 5.92299 9.04384C5.99812 9.18829 6.03474 9.34974 6.02922 9.51266V9.55015C6.03562 9.75026 5.97632 9.94718 5.8605 10.1105C5.68524 10.3414 5.44633 10.5159 5.173 10.6126C4.75187 10.7734 4.3028 10.8486 3.85217 10.8335H3.8C3.31142 10.8489 2.82619 10.7489 2.38341 10.5418C2.16673 10.4282 1.98043 10.2647 1.83962 10.0647L1.35629 9.38548L0 10.3542L0.481324 11.0417C0.780398 11.4614 1.17537 11.8036 1.63344 12.0396L1.65641 12.0501C2.11753 12.2649 2.60972 12.4054 3.1147 12.4667V14.1667H4.7814V12.4334C5.11826 12.3809 5.44859 12.2929 5.76682 12.1708C6.33706 11.9604 6.83464 11.5901 7.20012 11.1041C7.4912 10.6848 7.66124 10.1933 7.69175 9.68361C7.72227 9.17398 7.61197 8.66579 7.37306 8.21456L7.36056 8.19378C7.15173 7.84792 6.86662 7.55435 6.52715 7.33537C6.18841 7.12321 5.82161 6.95915 5.43768 6.84795C5.21679 6.78343 4.96685 6.71673 4.66893 6.63956C4.43147 6.57503 4.1731 6.51458 3.77522 6.43116L3.77507 6.43131C3.35829 6.34557 2.94877 6.22786 2.55015 6.0792C2.34786 6.00348 2.16752 5.87894 2.02511 5.71662C1.91379 5.58408 1.85581 5.41464 1.86264 5.24169V5.16046C1.87601 5.01557 1.93181 4.8778 2.02307 4.76459C2.19019 4.57203 2.40615 4.42817 2.64811 4.34796C3.04398 4.216 3.46002 4.15453 3.87724 4.1666H3.90427C4.2202 4.16616 4.53467 4.20743 4.83972 4.28954C5.04812 4.34738 5.2449 4.44111 5.42101 4.56667C5.53116 4.6434 5.62591 4.74018 5.70017 4.85208L6.16055 5.54788L7.55014 4.62697L7.08976 3.93117C6.90099 3.64561 6.65988 3.39828 6.37927 3.20208C6.04749 2.96709 5.67752 2.79155 5.28559 2.68329C5.11891 2.63751 4.9499 2.6006 4.7793 2.57284V0.833336L3.1126 0.833439Z"/>
</svg>
