<svg width="24" height="24" viewBox="0 0 24 24" xmlns="http://www.w3.org/2000/svg">
  <path
    d="M10.6689 2.00015V4.56583C10.1645 4.62927 9.66728 4.74131 9.18441 4.90022C8.39228 5.16376 7.68598 5.63677 7.14061 6.26892L7.10617 6.30946H7.10639C6.60808 6.91962 6.32296 7.67553 6.29378 8.4627C6.24081 9.32654 6.50544 10.1799 7.03753 10.8627L7.07807 10.9159L7.07829 10.9157C7.57158 11.4997 8.20636 11.9471 8.92198 12.2157C9.63415 12.4797 10.3655 12.6885 11.1094 12.8407C11.6594 12.9595 12.0126 13.0408 12.3282 13.1282H12.3626C12.775 13.2282 13.1157 13.3187 13.419 13.4063H13.4188C13.7791 13.5134 14.122 13.6712 14.4376 13.8752C14.6164 13.9883 14.7687 14.1385 14.8845 14.3158C14.9972 14.5324 15.0521 14.7746 15.0438 15.019V15.0752C15.0534 15.3754 14.9645 15.6708 14.7908 15.9157C14.5279 16.2621 14.1695 16.5239 13.7595 16.6689C13.1278 16.9102 12.4542 17.0229 11.7783 17.0002H11.7C10.9671 17.0233 10.2393 16.8733 9.57511 16.5627C9.2501 16.3922 8.97065 16.147 8.75943 15.8471L8.03443 14.8282L6 16.2813L6.72199 17.3125C7.1706 17.9421 7.76306 18.4554 8.45017 18.8094L8.48461 18.8251C9.17629 19.1473 9.91458 19.3581 10.6721 19.4501V22H13.1721V19.4001C13.6774 19.3214 14.1729 19.1893 14.6502 19.0062C15.5056 18.6906 16.252 18.1352 16.8002 17.4062C17.2368 16.7771 17.4919 16.0399 17.5376 15.2754C17.5834 14.511 17.418 13.7487 17.0596 13.0718L17.0408 13.0407C16.7276 12.5219 16.2999 12.0815 15.7907 11.7531C15.2826 11.4348 14.7324 11.1887 14.1565 11.0219C13.8252 10.9251 13.4503 10.8251 13.0034 10.7093C12.6472 10.6125 12.2596 10.5219 11.6628 10.3967L11.6626 10.397C11.0374 10.2683 10.4232 10.0918 9.82522 9.86879C9.52179 9.75522 9.25128 9.56841 9.03766 9.32492C8.87069 9.12612 8.78371 8.87195 8.79396 8.61253V8.49068C8.81401 8.27335 8.89772 8.0667 9.03461 7.89687C9.28529 7.60805 9.60922 7.39224 9.97217 7.27193C10.566 7.074 11.19 6.9818 11.8159 6.99989H11.8564C12.3303 6.99923 12.802 7.06114 13.2596 7.1843C13.5722 7.27106 13.8673 7.41166 14.1315 7.59999C14.2967 7.71509 14.4389 7.86027 14.5503 8.02811L15.2408 9.07181L17.3252 7.69045L16.6346 6.64675C16.3515 6.21842 15.9898 5.84742 15.5689 5.55311C15.0712 5.20064 14.5163 4.93732 13.9284 4.77493C13.6784 4.70627 13.4248 4.6509 13.169 4.60926V2L10.6689 2.00015Z"/>
</svg>
