<svg width="12" height="14" viewBox="0 0 12 14" xmlns="http://www.w3.org/2000/svg">
  <path
    d="M10.2295 10.1554C10.1031 10.043 9.90642 10.043 9.79402 10.1694C9.13367 10.8298 8.29063 11.181 7.44768 11.181C6.21125 11.181 5.03108 10.4224 4.35668 9.17194L7.56008 9.17184C7.74276 9.17184 7.8832 9.0313 7.8832 8.84872V7.75282C7.8832 7.57014 7.74266 7.42969 7.56008 7.42969H3.79468C3.76655 7.21889 3.76655 7.00817 3.76655 6.81147C3.76655 6.61477 3.78057 6.40407 3.8087 6.17925H7.56004C7.74272 6.17925 7.88317 6.03871 7.88317 5.85612V4.76022C7.88317 4.57754 7.74263 4.4371 7.56004 4.4371L4.35665 4.437C5.03102 3.20058 6.19717 2.4279 7.44764 2.4279C8.30469 2.4279 9.13361 2.79318 9.79399 3.45353C9.92042 3.57995 10.1171 3.57995 10.2295 3.46754L11.4518 2.34352C11.5221 2.28736 11.5502 2.20298 11.5642 2.10468C11.5642 2.02039 11.5361 1.93611 11.48 1.86584C10.3701 0.741818 8.95097 0.123619 7.46167 0.123619C5.00292 0.123619 2.76897 1.85174 1.88383 4.42291H0.534977C0.352298 4.42291 0.211853 4.56345 0.211853 4.74604V5.84194C0.211853 6.02462 0.352393 6.16506 0.534977 6.16506H1.51845C1.50444 6.38988 1.49032 6.60059 1.49032 6.79729C1.49032 6.99399 1.50434 7.20469 1.51845 7.41551H0.534977C0.352298 7.41551 0.211853 7.55605 0.211853 7.73864V8.83453C0.211853 9.01721 0.352393 9.15766 0.534977 9.15766H1.88383C2.769 11.7288 5.00292 13.457 7.46167 13.457C8.95094 13.457 10.3841 12.8387 11.48 11.7147C11.5361 11.6586 11.5784 11.5742 11.5784 11.4759C11.5784 11.3916 11.5362 11.3073 11.466 11.2371L10.2295 10.1554Z"/>
</svg>
