<svg width="24" height="24" viewBox="0 0 24 24" xmlns="http://www.w3.org/2000/svg">
  <path
    d="M18.3444 17.4833C18.1548 17.3146 17.8597 17.3146 17.6911 17.5043C16.7006 18.4948 15.436 19.0217 14.1716 19.0217C12.317 19.0217 10.5467 17.8837 9.53511 16.008L14.3402 16.0079C14.6142 16.0079 14.8249 15.7971 14.8249 15.5232V13.8793C14.8249 13.6053 14.6141 13.3947 14.3402 13.3947H8.69211C8.64992 13.0784 8.64992 12.7624 8.64992 12.4673C8.64992 12.1723 8.67094 11.8562 8.71314 11.519H14.3402C14.6142 11.519 14.8248 11.3082 14.8248 11.0343V9.39045C14.8248 9.11643 14.614 8.90576 14.3402 8.90576L9.53506 8.90562C10.5466 7.05098 12.2958 5.89197 14.1716 5.89197C15.4571 5.89197 16.7005 6.43988 17.6911 7.43041C17.8807 7.62005 18.1758 7.62005 18.3444 7.45143L20.1778 5.76539C20.2833 5.68116 20.3254 5.55458 20.3465 5.40714C20.3465 5.28071 20.3043 5.15428 20.22 5.04888C18.5552 3.36285 16.4265 2.43555 14.1926 2.43555C10.5045 2.43555 7.15355 5.02773 5.82583 8.88449H3.80256C3.52854 8.88449 3.31787 9.0953 3.31787 9.36918V11.013C3.31787 11.287 3.52868 11.4977 3.80256 11.4977H5.27777C5.25675 11.8349 5.23558 12.151 5.23558 12.446C5.23558 12.7411 5.2566 13.0571 5.27777 13.3734H3.80256C3.52854 13.3734 3.31787 13.5842 3.31787 13.8581V15.5019C3.31787 15.7759 3.52868 15.9866 3.80256 15.9866H5.82583C7.15359 19.8433 10.5045 22.4355 14.1926 22.4355C16.4265 22.4355 18.5762 21.5082 20.22 19.8222C20.3043 19.738 20.3676 19.6114 20.3676 19.464C20.3676 19.3375 20.3044 19.2111 20.199 19.1057L18.3444 17.4833Z"/>
</svg>
