<svg width="16" height="16" viewBox="0 0 16 16" xmlns="http://www.w3.org/2000/svg">
  <path
    d="M11.1448 5.13333C10.8848 5.39333 10.8848 5.80667 11.1448 6.06667L12.4115 7.33333H6.27817C5.9115 7.33333 5.6115 7.63333 5.6115 8C5.6115 8.36667 5.9115 8.66667 6.27817 8.66667H12.4115L11.1448 9.93333C10.8848 10.1933 10.8848 10.6067 11.1448 10.8667C11.4048 11.1267 11.8182 11.1267 12.0782 10.8667L14.4715 8.47333C14.7315 8.21333 14.7315 7.79333 14.4715 7.53333L12.0782 5.13333C11.8182 4.87333 11.4048 4.87333 11.1448 5.13333ZM2.6665 12.6667H7.33317C7.69984 12.6667 7.99984 12.9667 7.99984 13.3333C7.99984 13.7 7.69984 14 7.33317 14H2.6665C1.93317 14 1.33317 13.4 1.33317 12.6667V3.33333C1.33317 2.6 1.93317 2 2.6665 2H7.33317C7.69984 2 7.99984 2.3 7.99984 2.66667C7.99984 3.03333 7.69984 3.33333 7.33317 3.33333H2.6665V12.6667Z"
  />
</svg>
