<svg width="20" height="16" viewBox="0 0 20 16" xmlns="http://www.w3.org/2000/svg">
<path d="M9.99992 3.41661C12.2999 3.41661 14.1666 5.28328 14.1666 7.58328C14.1666 8.00828 14.0833 8.41661 13.9666 8.79994L16.5166 11.3499C17.6749 10.3249 18.5916 9.04161 19.1666 7.57494C17.7249 3.92494 14.1666 1.33328 9.99992 1.33328C8.94158 1.33328 7.92492 1.49994 6.96658 1.80828L8.77492 3.61661C9.16658 3.49994 9.57492 3.41661 9.99992 3.41661ZM2.25825 0.633276C1.93325 0.958276 1.93325 1.48328 2.25825 1.80828L3.89992 3.44994C2.54992 4.52494 1.47492 5.94161 0.833252 7.58328C2.27492 11.2416 5.83325 13.8333 9.99992 13.8333C11.2666 13.8333 12.4749 13.5833 13.5916 13.1499L15.8583 15.4166C16.1833 15.7416 16.7083 15.7416 17.0333 15.4166C17.3583 15.0916 17.3583 14.5666 17.0333 14.2416L3.44159 0.633276C3.11659 0.308276 2.58325 0.308276 2.25825 0.633276ZM9.99992 11.7499C7.69992 11.7499 5.83325 9.88328 5.83325 7.58328C5.83325 6.94161 5.98325 6.33328 6.24158 5.79994L7.54992 7.10828C7.52492 7.25828 7.49992 7.41661 7.49992 7.58328C7.49992 8.96661 8.61658 10.0833 9.99992 10.0833C10.1666 10.0833 10.3166 10.0583 10.4749 10.0249L11.7833 11.3333C11.2416 11.5999 10.6416 11.7499 9.99992 11.7499ZM12.4749 7.30828C12.3499 6.14161 11.4333 5.23328 10.2749 5.10828L12.4749 7.30828Z"/>
</svg>
