<svg width="15" height="16" viewBox="0 0 15 16"  xmlns="http://www.w3.org/2000/svg">
<path d="M7.5 1.33333C4.05 1.33333 1.25 4.31999 1.25 8C1.25 11.68 4.05 14.6667 7.5 14.6667C10.95 14.6667 13.75 11.68 13.75 8C13.75 4.31999 10.95 1.33333 7.5 1.33333ZM12.1625 6.08L10.425 6.84666C10.1062 5.94 9.4375 5.22 8.58125 4.88666L9.3 3.03333C10.6125 3.56666 11.6562 4.68 12.1625 6.08ZM7.5 10C6.4625 10 5.625 9.10666 5.625 8C5.625 6.89333 6.4625 6 7.5 6C8.5375 6 9.375 6.89333 9.375 8C9.375 9.10666 8.5375 10 7.5 10ZM5.70625 3.02666L6.4375 4.88C5.575 5.21333 4.89375 5.93999 4.575 6.85999L2.8375 6.08666C3.34375 4.68 4.3875 3.56666 5.70625 3.02666ZM2.8375 9.91333L4.575 9.14666C4.89375 10.0667 5.56875 10.7867 6.43125 11.12L5.7 12.9733C4.3875 12.4333 3.34375 11.32 2.8375 9.91333ZM9.3 12.9733L8.58125 11.12C9.4375 10.78 10.1125 10.06 10.425 9.14L12.1625 9.92C11.6562 11.32 10.6125 12.4333 9.3 12.9733Z" />
</svg>
