<svg width="24" height="24" viewBox="0 0 24 24" fill="none" xmlns="http://www.w3.org/2000/svg">
  <path fill-rule="evenodd" clip-rule="evenodd" d="M21.6 12.2271C21.6 11.518 21.5364 10.8362 21.4182 10.1816H12V14.0498H17.3818C17.15 15.2998 16.4455 16.3589 15.3864 17.068V19.5771H18.6182C20.5091 17.8362 21.6 15.2725 21.6 12.2271Z" fill="#4285F4"/>
  <path fill-rule="evenodd" clip-rule="evenodd" d="M11.9998 21.9999C14.6998 21.9999 16.9635 21.1044 18.618 19.5772L15.3862 17.0681C14.4907 17.6681 13.3453 18.0226 11.9998 18.0226C9.39529 18.0226 7.19075 16.2635 6.40439 13.8999H3.06348V16.4908C4.70893 19.759 8.09075 21.9999 11.9998 21.9999Z" fill="#34A853"/>
  <path fill-rule="evenodd" clip-rule="evenodd" d="M6.40455 13.9002C6.20455 13.3002 6.09091 12.6593 6.09091 12.0002C6.09091 11.3411 6.20455 10.7002 6.40455 10.1002V7.50928H3.06364C2.38636 8.85927 2 10.3865 2 12.0002C2 13.6138 2.38636 15.1411 3.06364 16.4911L6.40455 13.9002Z" fill="#FBBC05"/>
  <path fill-rule="evenodd" clip-rule="evenodd" d="M12.0001 5.97726C13.4683 5.97726 14.7864 6.48181 15.8228 7.47272L18.691 4.60454C16.9592 2.99091 14.6955 2 12.0001 2C8.09099 2 4.70918 4.2409 3.06372 7.50908L6.40463 10.1C7.19099 7.73635 9.39554 5.97726 12.0001 5.97726Z" fill="#EA4335"/>
</svg>
