<svg width="18" height="18" viewBox="0 0 18 18" fill="none" xmlns="http://www.w3.org/2000/svg">
<path fill-rule="evenodd" clip-rule="evenodd" d="M17 9.18947C17 8.59856 16.947 8.03038 16.8485 7.48492H9V10.7084H13.4849C13.2917 11.7501 12.7045 12.6326 11.822 13.2235V15.3145H14.5152C16.0909 13.8637 17 11.7273 17 9.18947Z" fill="#4285F4"/>
<path fill-rule="evenodd" clip-rule="evenodd" d="M8.99996 17.3334C11.25 17.3334 13.1363 16.5872 14.5151 15.3144L11.8219 13.2235C11.0757 13.7235 10.1212 14.019 8.99996 14.019C6.8295 14.019 4.99238 12.5531 4.33707 10.5834H1.55298V12.7425C2.92419 15.4659 5.74238 17.3334 8.99996 17.3334Z" fill="#34A853"/>
<path fill-rule="evenodd" clip-rule="evenodd" d="M4.33721 10.5834C4.17054 10.0834 4.07584 9.54929 4.07584 9.00005C4.07584 8.45081 4.17054 7.91672 4.33721 7.41672V5.25763H1.55311C0.988718 6.38263 0.666748 7.65535 0.666748 9.00005C0.666748 10.3447 0.988718 11.6175 1.55311 12.7425L4.33721 10.5834Z" fill="#FBBC05"/>
<path fill-rule="evenodd" clip-rule="evenodd" d="M9.0002 3.98107C10.2237 3.98107 11.3222 4.40153 12.1858 5.22728L14.576 2.83714C13.1328 1.49244 11.2464 0.666687 9.0002 0.666687C5.74262 0.666687 2.92444 2.53411 1.55322 5.25759L4.33732 7.41667C4.99262 5.44698 6.82974 3.98107 9.0002 3.98107Z" fill="#EA4335"/>
</svg>
