<svg width="24" height="24" viewBox="0 0 24 24" xmlns="http://www.w3.org/2000/svg">
  <path
    d="M20.7662 4.09482C20.7662 3.64855 20.2195 3.41846 19.885 3.71387C16.2552 6.91954 11.7056 8.52045 7.15711 8.52045H6.36413C4.63566 8.52045 3.23377 9.92262 3.23377 11.6517C3.23377 13.3807 4.63545 14.7821 6.36413 14.7821H7.16524C12.0417 14.7821 16.4946 16.5987 19.8849 19.59C20.2196 19.8853 20.7662 19.6549 20.7662 19.2086L20.7662 4.09482Z"
  />
  <path
    d="M7.30367 14.7861V19.4787C7.30367 19.9974 7.72373 20.4179 8.24243 20.4179C8.76113 20.4179 9.18151 19.9974 9.18151 19.4787H9.18249V14.8885C8.56432 14.8239 7.93718 14.7903 7.30367 14.7861Z"/>
  <path fill-rule="evenodd" clip-rule="evenodd"
        d="M20.5325 4.09483C20.5325 3.86452 20.2344 3.71721 20.0397 3.8891C16.3656 7.13394 11.7604 8.75422 7.1571 8.75422H6.36412C4.76482 8.75422 3.46753 10.0517 3.46753 11.6517C3.46753 13.2516 4.76454 14.5483 6.36412 14.5483H7.16524C12.1009 14.5483 16.6082 16.3872 20.0396 19.4148C20.2342 19.5864 20.5324 19.4392 20.5324 19.2086L20.5325 4.09483ZM19.7302 3.53866C20.2046 3.11973 21 3.43259 21 4.09483L21 19.2086C21 19.8706 20.2049 20.1842 19.7303 19.7653C16.9105 17.2774 13.3471 15.6123 9.41625 15.1479V19.4787C9.41625 19.4868 9.41584 19.4948 9.41503 19.5027C9.40225 20.1394 8.88226 20.6517 8.24243 20.6517C7.59446 20.6517 7.0699 20.1263 7.0699 19.4787V15.0159H6.36412C4.50636 15.0159 3 13.5098 3 11.6517C3 9.79358 4.50649 8.28669 6.36412 8.28669H7.1571C11.6509 8.28669 16.1448 6.70517 19.7302 3.53866ZM7.53744 15.0228V19.4787C7.53744 19.8684 7.85299 20.1842 8.24243 20.1842C8.63197 20.1842 8.94774 19.8683 8.94774 19.4787C8.94774 19.4714 8.94808 19.4642 8.94872 19.4572V15.1003C8.48312 15.0571 8.01232 15.0315 7.53744 15.0228Z"/>
</svg>
