<svg width="10" height="10" viewBox="0 0 10 10"  xmlns="http://www.w3.org/2000/svg">
<path d="M9.38312 1.04729C9.38312 0.824152 9.10974 0.709107 8.94249 0.856814C7.12759 2.45965 4.85282 3.2601 2.57855 3.2601H2.18206C1.31783 3.2601 0.616885 3.96119 0.616885 4.82575C0.616885 5.69022 1.31773 6.39092 2.18206 6.39092H2.58262C5.02087 6.39092 7.24728 7.29921 8.94246 8.7949C9.10978 8.94253 9.3831 8.82732 9.3831 8.60418L9.38312 1.04729Z" />
<path d="M2.65184 6.39291V8.73922C2.65184 8.99857 2.86186 9.20884 3.12122 9.20884C3.38057 9.20884 3.59076 8.99857 3.59076 8.73922H3.59125V6.44411C3.28216 6.41182 2.96859 6.39503 2.65184 6.39291Z" />
<path fill-rule="evenodd" clip-rule="evenodd" d="M9.26623 1.04729C9.26623 0.932139 9.11718 0.858483 9.01986 0.944427C7.18278 2.56685 4.88021 3.37699 2.57855 3.37699H2.18206C1.38241 3.37699 0.733766 4.02571 0.733766 4.82575C0.733766 5.62567 1.38227 6.27405 2.18206 6.27405H2.58262C5.05045 6.27405 7.3041 7.19348 9.01979 8.70726C9.11708 8.7931 9.26621 8.71947 9.26621 8.60418L9.26623 1.04729ZM8.86512 0.76921C9.1023 0.559741 9.5 0.716174 9.5 1.04729L9.49998 8.60418C9.49998 8.93517 9.10247 9.09196 8.86513 8.88255C7.45523 7.63857 5.67357 6.80601 3.70813 6.57384V8.73922C3.70813 8.74328 3.70792 8.74728 3.70752 8.75123C3.70112 9.06957 3.44113 9.32573 3.12121 9.32573C2.79723 9.32573 2.53495 9.06305 2.53495 8.73922V6.50781H2.18206C1.25318 6.50781 0.5 5.75479 0.5 4.82575C0.5 3.89667 1.25325 3.14322 2.18206 3.14322H2.57855C4.82543 3.14322 7.07239 2.35246 8.86512 0.76921ZM2.76872 6.51127V8.73922C2.76872 8.9341 2.92649 9.09196 3.12121 9.09196C3.31599 9.09196 3.47387 8.93405 3.47387 8.73922C3.47387 8.73559 3.47404 8.732 3.47436 8.72846V6.55004C3.24156 6.52845 3.00616 6.51564 2.76872 6.51127Z" />
</svg>
