<svg width="12" height="11" viewBox="0 0 12 11" fill="none" xmlns="http://www.w3.org/2000/svg">
<path d="M1.29383 10.8149H10.7063C11.6688 10.8149 12.2688 9.77112 11.7876 8.93987L7.08132 0.808618C6.60007 -0.0226318 5.40008 -0.0226318 4.91883 0.808618L0.212576 8.93987C-0.268674 9.77112 0.331326 10.8149 1.29383 10.8149ZM6.00008 6.43987C5.65633 6.43987 5.37508 6.15862 5.37508 5.81487V4.56487C5.37508 4.22112 5.65633 3.93987 6.00008 3.93987C6.34383 3.93987 6.62507 4.22112 6.62507 4.56487V5.81487C6.62507 6.15862 6.34383 6.43987 6.00008 6.43987ZM6.62507 8.93987H5.37508V7.68987H6.62507V8.93987Z" fill="#B2B2B2"/>
</svg>
