<svg width="24" height="24" viewBox="0 0 24 24" xmlns="http://www.w3.org/2000/svg">
  <path
    d="M14 11.26V6H17V10H19V5C19 4.45 18.55 4 18 4H14C14 3.45 13.55 3 13 3H6C5.45 3 5 3.45 5 4V19H4C3.45 19 3 19.45 3 20C3 20.55 3.45 21 4 21H12.26C11.47 19.87 11 18.49 11 17C11 14.62 12.19 12.53 14 11.26ZM10 12C10 11.45 10.45 11 11 11C11.55 11 12 11.45 12 12C12 12.55 11.55 13 11 13C10.45 13 10 12.55 10 12Z"/>
  <path fill-rule="evenodd" clip-rule="evenodd"
        d="M20.4802 15V14.5C20.4802 13.12 19.3602 12 17.9802 12C16.6002 12 15.4802 13.12 15.4802 14.5V15C14.9302 15 14.4802 15.45 14.4802 16V20C14.4802 20.55 14.9302 21 15.4802 21H20.4802C21.0302 21 21.4802 20.55 21.4802 20V16C21.4802 15.45 21.0302 15 20.4802 15ZM16.4802 15H19.4802V14.5C19.4802 13.67 18.8102 13 17.9802 13C17.1502 13 16.4802 13.67 16.4802 14.5V15Z"/>
</svg>
