<svg width="20" height="20" viewBox="0 0 20 20"  xmlns="http://www.w3.org/2000/svg">
<path d="M11.6008 9.40805V5.20005H14.0008V8.40005H15.6008V4.40005C15.6008 3.96005 15.2408 3.60005 14.8008 3.60005H11.6008C11.6008 3.16005 11.2408 2.80005 10.8008 2.80005H5.20078C4.76078 2.80005 4.40078 3.16005 4.40078 3.60005V15.6H3.60078C3.16078 15.6 2.80078 15.96 2.80078 16.4001C2.80078 16.84 3.16078 17.2001 3.60078 17.2001H10.2088C9.57678 16.2961 9.20078 15.192 9.20078 14C9.20078 12.096 10.1528 10.424 11.6008 9.40805ZM8.40078 10C8.40078 9.56005 8.76078 9.20005 9.20078 9.20005C9.64078 9.20005 10.0008 9.56005 10.0008 10C10.0008 10.44 9.64078 10.8 9.20078 10.8C8.76078 10.8 8.40078 10.44 8.40078 10Z" />
<path fill-rule="evenodd" clip-rule="evenodd" d="M16.7844 12.4V12C16.7844 10.896 15.8884 10 14.7844 10C13.6804 10 12.7844 10.896 12.7844 12V12.4C12.3444 12.4 11.9844 12.76 11.9844 13.2V16.4C11.9844 16.84 12.3444 17.2 12.7844 17.2H16.7844C17.2244 17.2 17.5844 16.84 17.5844 16.4V13.2C17.5844 12.76 17.2244 12.4 16.7844 12.4ZM13.5844 12.4H15.9844V12C15.9844 11.336 15.4484 10.8 14.7844 10.8C14.1204 10.8 13.5844 11.336 13.5844 12V12.4Z" />
</svg>
