<svg width="12" height="13" viewBox="0 0 12 13"  xmlns="http://www.w3.org/2000/svg">
<path d="M7.76667 1.82004L4.43333 0.65337C4.15333 0.55337 3.84667 0.55337 3.56667 0.646703L0.906667 1.54004C0.366667 1.7267 0 2.23337 0 2.8067V10.7067C0 11.6467 0.94 12.2867 1.81333 11.9467L3.76667 11.1867C3.91333 11.1267 4.08 11.1267 4.22667 11.18L7.56 12.3467C7.84 12.4467 8.14667 12.4467 8.42667 12.3534L11.0867 11.46C11.6267 11.28 11.9933 10.7667 11.9933 10.1934V2.29337C11.9933 1.35337 11.0533 0.713369 10.18 1.05337L8.22667 1.81337C8.08 1.8667 7.92 1.87337 7.76667 1.82004ZM8 11.0934L4 9.6867V1.9067L8 3.31337V11.0934Z" />
</svg>
