<svg width="16" height="17" viewBox="0 0 16 17" fill="none" xmlns="http://www.w3.org/2000/svg">
<path d="M9.76667 3.82004L6.43333 2.65337C6.15333 2.55337 5.84667 2.55337 5.56667 2.6467L2.90667 3.54004C2.36667 3.7267 2 4.23337 2 4.8067V12.7067C2 13.6467 2.94 14.2867 3.81333 13.9467L5.76667 13.1867C5.91333 13.1267 6.08 13.1267 6.22667 13.18L9.56 14.3467C9.84 14.4467 10.1467 14.4467 10.4267 14.3534L13.0867 13.46C13.6267 13.28 13.9933 12.7667 13.9933 12.1934V4.29337C13.9933 3.35337 13.0533 2.71337 12.18 3.05337L10.2267 3.81337C10.08 3.8667 9.92 3.87337 9.76667 3.82004ZM10 13.0934L6 11.6867V3.9067L10 5.31337V13.0934Z" fill="white"/>
</svg>
