<svg width="16" height="16" viewBox="0 0 16 16" xmlns="http://www.w3.org/2000/svg">
  <path
    d="M7.95371 8.13527C8.62636 8.13527 9.28391 7.93581 9.8432 7.5621C10.4025 7.1884 10.8384 6.65724 11.0958 6.03579C11.3532 5.41434 11.4206 4.73052 11.2893 4.0708C11.1581 3.41107 10.8342 2.80507 10.3586 2.32944C9.88293 1.8538 9.27694 1.52989 8.61721 1.39866C7.95749 1.26744 7.27366 1.33479 6.65222 1.5922C6.03077 1.84961 5.49961 2.28552 5.1259 2.84481C4.7522 3.4041 4.55273 4.06164 4.55273 4.73429C4.55273 5.63629 4.91105 6.50134 5.54886 7.13915C6.18667 7.77696 7.05172 8.13527 7.95371 8.13527ZM7.95371 3.3739C8.22277 3.3739 8.48579 3.45369 8.70951 3.60317C8.93322 3.75265 9.10759 3.96512 9.21055 4.21369C9.31352 4.46227 9.34046 4.7358 9.28797 4.99969C9.23548 5.26358 9.10591 5.50598 8.91566 5.69624C8.7254 5.88649 8.483 6.01605 8.21911 6.06855C7.95522 6.12104 7.68169 6.0941 7.43311 5.99113C7.18454 5.88817 6.97207 5.7138 6.82259 5.49009C6.67311 5.26637 6.59332 5.00335 6.59332 4.73429C6.59373 4.37362 6.73718 4.02783 6.99222 3.7728C7.24725 3.51776 7.59304 3.37431 7.95371 3.3739Z"/>
  <path
    d="M9.19735 10.8894C9.95619 10.7444 10.6822 10.4622 11.3398 10.0566C11.4463 9.99057 11.5387 9.90412 11.6117 9.80226C11.6847 9.7004 11.7369 9.58512 11.7653 9.46304C11.7937 9.34096 11.7977 9.21449 11.7771 9.09086C11.7565 8.96724 11.7116 8.84889 11.6452 8.74263C11.5787 8.63636 11.492 8.54425 11.3899 8.47159C11.2877 8.39893 11.1723 8.34714 11.0501 8.3192C10.9279 8.29125 10.8014 8.2877 10.6779 8.30875C10.5543 8.3298 10.4361 8.37503 10.3301 8.44185C9.62628 8.87082 8.8195 9.10135 7.99528 9.10901C7.17107 9.11668 6.36014 8.90119 5.64845 8.48538C5.43193 8.3573 5.17354 8.32007 4.92967 8.38181C4.68579 8.44356 4.47625 8.59928 4.34678 8.81497C4.21731 9.03067 4.17842 9.28882 4.2386 9.53308C4.29878 9.77734 4.45315 9.98788 4.66801 10.1187C5.29889 10.4914 5.98942 10.7522 6.70913 10.8897L4.55907 13.0398C4.47038 13.1282 4.39999 13.2332 4.35193 13.3488C4.30387 13.4645 4.27909 13.5884 4.279 13.7136C4.2789 13.8389 4.30351 13.9629 4.3514 14.0786C4.39929 14.1943 4.46953 14.2994 4.55809 14.3879C4.64665 14.4764 4.7518 14.5466 4.86752 14.5944C4.98324 14.6423 5.10726 14.6668 5.23248 14.6667C5.35769 14.6665 5.48165 14.6417 5.59725 14.5935C5.71286 14.5454 5.81783 14.475 5.90618 14.3862L7.95341 12.339L10.0006 14.3863C10.089 14.475 10.194 14.5454 10.3096 14.5935C10.4252 14.6417 10.5491 14.6665 10.6743 14.6667C10.7996 14.6668 10.9236 14.6423 11.0393 14.5944C11.155 14.5466 11.2602 14.4764 11.3487 14.3879C11.4373 14.2994 11.5075 14.1943 11.5554 14.0786C11.6033 13.9629 11.6279 13.8389 11.6278 13.7137C11.6277 13.5884 11.6029 13.4645 11.5549 13.3488C11.5068 13.2332 11.4364 13.1282 11.3477 13.0398L9.19735 10.8894Z"/>
</svg>
