<svg width="24" height="24" viewBox="0 0 24 24" xmlns="http://www.w3.org/2000/svg">
  <path
    d="M11.9293 12.2029C12.9383 12.2029 13.9246 11.9037 14.7636 11.3432C15.6025 10.7826 16.2564 9.98589 16.6425 9.05372C17.0286 8.12155 17.1296 7.09581 16.9328 6.10622C16.736 5.11664 16.2501 4.20764 15.5366 3.49419C14.8232 2.78073 13.9142 2.29487 12.9246 2.09803C11.935 1.90118 10.9093 2.00221 9.9771 2.38833C9.04493 2.77445 8.24819 3.42831 7.68763 4.26725C7.12708 5.10618 6.82788 6.0925 6.82788 7.10147C6.82788 8.45446 7.36536 9.75204 8.32207 10.7088C9.27878 11.6655 10.5764 12.2029 11.9293 12.2029V12.2029ZM11.9293 5.06088C12.3329 5.06088 12.7275 5.18056 13.063 5.40478C13.3986 5.62901 13.6602 5.9477 13.8146 6.32057C13.9691 6.69344 14.0095 7.10373 13.9307 7.49957C13.852 7.8954 13.6576 8.259 13.3723 8.54438C13.0869 8.82977 12.7233 9.02411 12.3274 9.10285C11.9316 9.18159 11.5213 9.14118 11.1485 8.98673C10.7756 8.83228 10.4569 8.57073 10.2327 8.23516C10.0084 7.89959 9.88876 7.50506 9.88876 7.10147C9.88937 6.56046 10.1046 6.04178 10.4871 5.65923C10.8697 5.27668 11.3883 5.06149 11.9293 5.06088V5.06088Z"/>
  <path
    d="M13.7953 16.3341C14.9335 16.1166 16.0226 15.6933 17.0089 15.085C17.1687 14.9859 17.3073 14.8562 17.4168 14.7034C17.5264 14.5506 17.6047 14.3777 17.6472 14.1946C17.6898 14.0115 17.6958 13.8218 17.6649 13.6363C17.6339 13.4509 17.5667 13.2734 17.4671 13.114C17.3674 12.9546 17.2372 12.8164 17.084 12.7074C16.9309 12.5984 16.7577 12.5207 16.5744 12.4788C16.3912 12.4369 16.2014 12.4316 16.0161 12.4632C15.8308 12.4947 15.6535 12.5626 15.4944 12.6628C14.4387 13.3063 13.2285 13.6521 11.9922 13.6636C10.7559 13.675 9.53947 13.3518 8.47195 12.7281C8.14717 12.536 7.75957 12.4801 7.39377 12.5728C7.02796 12.6654 6.71365 12.899 6.51944 13.2225C6.32523 13.546 6.26689 13.9333 6.35717 14.2997C6.44744 14.666 6.67899 14.9819 7.00128 15.1781C7.9476 15.7371 8.9834 16.1284 10.063 16.3346L6.83788 19.5597C6.70484 19.6923 6.59925 19.8498 6.52716 20.0233C6.45508 20.1967 6.4179 20.3827 6.41776 20.5705C6.41763 20.7583 6.45453 20.9443 6.52637 21.1179C6.5982 21.2914 6.70356 21.4491 6.8364 21.5819C6.96925 21.7147 7.12697 21.8199 7.30055 21.8917C7.47413 21.9634 7.66016 22.0002 7.84798 22C8.03581 21.9998 8.22174 21.9625 8.39515 21.8903C8.56855 21.8182 8.72602 21.7125 8.85854 21.5794L11.9294 18.5086L15.0002 21.5794C15.1327 21.7125 15.2902 21.8182 15.4636 21.8903C15.637 21.9625 15.823 21.9998 16.0108 22C16.1986 22.0003 16.3846 21.9634 16.5582 21.8917C16.7318 21.8199 16.8895 21.7147 17.0224 21.5819C17.1552 21.4491 17.2606 21.2914 17.3324 21.1179C17.4042 20.9443 17.4411 20.7583 17.441 20.5705C17.4409 20.3827 17.4037 20.1967 17.3316 20.0233C17.2595 19.8499 17.1539 19.6923 17.0209 19.5597L13.7953 16.3341Z"/></svg>
