<svg width="16" height="16" viewBox="0 0 16 16" xmlns="http://www.w3.org/2000/svg">
<path d="M7.95274 8.13527C8.62539 8.13527 9.28293 7.93581 9.84222 7.5621C10.4015 7.1884 10.8374 6.65724 11.0948 6.03579C11.3522 5.41434 11.4196 4.73052 11.2884 4.0708C11.1571 3.41107 10.8332 2.80507 10.3576 2.32944C9.88196 1.8538 9.27596 1.52989 8.61624 1.39866C7.95651 1.26744 7.27269 1.33479 6.65124 1.5922C6.02979 1.84961 5.49863 2.28552 5.12493 2.84481C4.75122 3.4041 4.55176 4.06164 4.55176 4.73429C4.55176 5.63629 4.91007 6.50134 5.54788 7.13915C6.18569 7.77696 7.05074 8.13527 7.95274 8.13527ZM7.95274 3.3739C8.2218 3.3739 8.48481 3.45369 8.70853 3.60317C8.93225 3.75265 9.10661 3.96512 9.20958 4.21369C9.31254 4.46227 9.33948 4.7358 9.28699 4.99969C9.2345 5.26358 9.10493 5.50598 8.91468 5.69624C8.72442 5.88649 8.48203 6.01605 8.21814 6.06855C7.95425 6.12104 7.68072 6.0941 7.43214 5.99113C7.18356 5.88817 6.97109 5.7138 6.82161 5.49009C6.67213 5.26637 6.59235 5.00335 6.59235 4.73429C6.59275 4.37362 6.73621 4.02783 6.99124 3.7728C7.24628 3.51776 7.59206 3.37431 7.95274 3.3739Z"/>
<path d="M9.19686 10.8894C9.9557 10.7444 10.6817 10.4622 11.3393 10.0566C11.4458 9.99057 11.5382 9.90412 11.6112 9.80226C11.6842 9.7004 11.7364 9.58512 11.7648 9.46304C11.7932 9.34096 11.7972 9.21449 11.7766 9.09086C11.756 8.96724 11.7111 8.84889 11.6447 8.74263C11.5783 8.63636 11.4915 8.54425 11.3894 8.47159C11.2872 8.39893 11.1718 8.34714 11.0496 8.3192C10.9274 8.29125 10.8009 8.2877 10.6774 8.30875C10.5538 8.3298 10.4357 8.37503 10.3296 8.44185C9.62579 8.87082 8.81901 9.10135 7.9948 9.10901C7.17058 9.11668 6.35965 8.90119 5.64797 8.48538C5.43145 8.3573 5.17305 8.32007 4.92918 8.38181C4.68531 8.44356 4.47576 8.59928 4.34629 8.81497C4.21682 9.03067 4.17793 9.28882 4.23811 9.53308C4.29829 9.77734 4.45266 9.98788 4.66752 10.1187C5.2984 10.4914 5.98893 10.7522 6.70864 10.8897L4.55858 13.0398C4.46989 13.1282 4.3995 13.2332 4.35144 13.3488C4.30338 13.4645 4.2786 13.5884 4.27851 13.7136C4.27842 13.8389 4.30302 13.9629 4.35091 14.0786C4.3988 14.1943 4.46904 14.2994 4.5576 14.3879C4.64616 14.4764 4.75132 14.5466 4.86704 14.5944C4.98276 14.6423 5.10677 14.6668 5.23199 14.6667C5.3572 14.6665 5.48116 14.6417 5.59676 14.5935C5.71237 14.5454 5.81735 14.475 5.90569 14.3862L7.95292 12.339L10.0002 14.3863C10.0885 14.475 10.1935 14.5454 10.3091 14.5935C10.4247 14.6417 10.5486 14.6665 10.6739 14.6667C10.7991 14.6668 10.9231 14.6423 11.0388 14.5944C11.1545 14.5466 11.2597 14.4764 11.3482 14.3879C11.4368 14.2994 11.507 14.1943 11.5549 14.0786C11.6028 13.9629 11.6274 13.8389 11.6273 13.7137C11.6272 13.5884 11.6025 13.4645 11.5544 13.3488C11.5063 13.2332 11.436 13.1282 11.3473 13.0398L9.19686 10.8894Z"/>
</svg>
