<svg width="16" height="17" viewBox="0 0 16 17"  xmlns="http://www.w3.org/2000/svg">
<path d="M1.6 8.60001V11.8C1.6 12.464 2.136 13 2.8 13C3.464 13 4 12.464 4 11.8V8.60001C4 7.93601 3.464 7.40001 2.8 7.40001C2.136 7.40001 1.6 7.93601 1.6 8.60001ZM6.4 8.60001V11.8C6.4 12.464 6.936 13 7.6 13C8.264 13 8.8 12.464 8.8 11.8V8.60001C8.8 7.93601 8.264 7.40001 7.6 7.40001C6.936 7.40001 6.4 7.93601 6.4 8.60001ZM1.2 17H14C14.664 17 15.2 16.464 15.2 15.8C15.2 15.136 14.664 14.6 14 14.6H1.2C0.536 14.6 0 15.136 0 15.8C0 16.464 0.536 17 1.2 17ZM11.2 8.60001V11.8C11.2 12.464 11.736 13 12.4 13C13.064 13 13.6 12.464 13.6 11.8V8.60001C13.6 7.93601 13.064 7.40001 12.4 7.40001C11.736 7.40001 11.2 7.93601 11.2 8.60001ZM6.856 0.592006L0.536 3.92001C0.208 4.08801 0 4.43201 0 4.80001C0 5.35201 0.448 5.80001 1 5.80001H14.208C14.752 5.80001 15.2 5.35201 15.2 4.80001C15.2 4.43201 14.992 4.08801 14.664 3.92001L8.344 0.592006C7.88 0.344006 7.32 0.344006 6.856 0.592006Z" />
</svg>
