<svg width="11" height="14" viewBox="0 0 11 14" xmlns="http://www.w3.org/2000/svg">
  <path
    d="M5.5 2.83333V0.973333C5.5 0.673333 5.14 0.526667 4.93333 0.74L2.4 3.26667C2.26666 3.4 2.26666 3.60667 2.4 3.74L4.92667 6.26667C5.14 6.47333 5.5 6.32667 5.5 6.02667V4.16667C7.98667 4.16667 9.95333 6.44667 9.40667 9.02667C9.09333 10.54 7.86666 11.76 6.36 12.0733C3.98 12.5733 1.86 10.94 1.54 8.73333C1.49333 8.41333 1.21333 8.16667 0.886665 8.16667C0.486665 8.16667 0.166665 8.52 0.219998 8.92C0.633332 11.8467 3.42 14.0133 6.57333 13.4C8.65333 12.9933 10.3267 11.32 10.7333 9.24C11.3933 5.82 8.79333 2.83333 5.5 2.83333Z"/>
</svg>
