<svg width="16" height="13" viewBox="0 0 16 13"  xmlns="http://www.w3.org/2000/svg">
<path d="M10.912 5.21604C11.352 4.04004 12.056 2.99204 12.96 2.15204C13.264 1.86404 12.992 1.35204 12.592 1.47204C9.936 2.25604 7.992 4.71204 8 7.62404C8.76 6.60004 9.76 5.77604 10.912 5.21604ZM7.536 3.48004C7.056 2.23204 6.232 1.15204 5.168 0.384044C4.832 0.144044 4.4 0.536044 4.592 0.904044C5.232 2.12004 5.6 3.50404 5.6 4.96804C5.6 5.13604 5.576 5.29604 5.568 5.45604C5.912 5.64804 6.232 5.87204 6.544 6.11204C6.712 5.16804 7.064 4.28004 7.536 3.48004ZM8 12.4H0.8C0.36 12.4 0 12.04 0 11.6C0 11.16 0.36 10.8 0.8 10.8H4.6C4.144 9.04805 2.968 7.58404 1.4 6.75204C1.272 6.68804 1.192 6.55204 1.192 6.40004C1.192 6.18404 1.368 6.00804 1.584 6.00004C1.592 6.00004 1.6 6.00004 1.6 6.00004C5.136 6.00004 8 8.86405 8 12.4ZM14.608 6.75204C13.04 7.58404 11.856 9.04805 11.408 10.8H15.2C15.64 10.8 16 11.16 16 11.6C16 12.04 15.64 12.4 15.2 12.4H11.2H9.6C9.6 11.856 9.544 11.32 9.44 10.8C9.32 10.224 9.136 9.66405 8.904 9.14404C10.016 7.26405 12.056 6.00004 14.4 6.00004C14.408 6.00004 14.416 6.00004 14.416 6.00004C14.632 6.00004 14.808 6.18404 14.808 6.40004C14.816 6.55204 14.728 6.68004 14.608 6.75204Z" />
</svg>
