<svg width="16" height="17" viewBox="0 0 16 17" xmlns="http://www.w3.org/2000/svg">
<path d="M3.33366 7.83337H5.33366C5.70033 7.83337 6.00033 7.53337 6.00033 7.16671V4.50004C6.00033 4.13337 5.70033 3.83337 5.33366 3.83337H3.33366C2.96699 3.83337 2.66699 4.13337 2.66699 4.50004V7.16671C2.66699 7.53337 2.96699 7.83337 3.33366 7.83337ZM3.33366 12.5H5.33366C5.70033 12.5 6.00033 12.2 6.00033 11.8334V9.16671C6.00033 8.80004 5.70033 8.50004 5.33366 8.50004H3.33366C2.96699 8.50004 2.66699 8.80004 2.66699 9.16671V11.8334C2.66699 12.2 2.96699 12.5 3.33366 12.5ZM7.33366 12.5H9.33366C9.70033 12.5 10.0003 12.2 10.0003 11.8334V9.16671C10.0003 8.80004 9.70033 8.50004 9.33366 8.50004H7.33366C6.96699 8.50004 6.66699 8.80004 6.66699 9.16671V11.8334C6.66699 12.2 6.96699 12.5 7.33366 12.5ZM11.3337 12.5H13.3337C13.7003 12.5 14.0003 12.2 14.0003 11.8334V9.16671C14.0003 8.80004 13.7003 8.50004 13.3337 8.50004H11.3337C10.967 8.50004 10.667 8.80004 10.667 9.16671V11.8334C10.667 12.2 10.967 12.5 11.3337 12.5ZM7.33366 7.83337H9.33366C9.70033 7.83337 10.0003 7.53337 10.0003 7.16671V4.50004C10.0003 4.13337 9.70033 3.83337 9.33366 3.83337H7.33366C6.96699 3.83337 6.66699 4.13337 6.66699 4.50004V7.16671C6.66699 7.53337 6.96699 7.83337 7.33366 7.83337ZM10.667 4.50004V7.16671C10.667 7.53337 10.967 7.83337 11.3337 7.83337H13.3337C13.7003 7.83337 14.0003 7.53337 14.0003 7.16671V4.50004C14.0003 4.13337 13.7003 3.83337 13.3337 3.83337H11.3337C10.967 3.83337 10.667 4.13337 10.667 4.50004Z"/>
</svg>
