<svg width="12" height="10" viewBox="0 0 12 10"  xmlns="http://www.w3.org/2000/svg">
<path d="M1.33366 4.83337H3.33366C3.70033 4.83337 4.00033 4.53337 4.00033 4.16671V1.50004C4.00033 1.13337 3.70033 0.833374 3.33366 0.833374H1.33366C0.966992 0.833374 0.666992 1.13337 0.666992 1.50004V4.16671C0.666992 4.53337 0.966992 4.83337 1.33366 4.83337ZM1.33366 9.50004H3.33366C3.70033 9.50004 4.00033 9.20004 4.00033 8.83337V6.16671C4.00033 5.80004 3.70033 5.50004 3.33366 5.50004H1.33366C0.966992 5.50004 0.666992 5.80004 0.666992 6.16671V8.83337C0.666992 9.20004 0.966992 9.50004 1.33366 9.50004ZM5.33366 9.50004H7.33366C7.70033 9.50004 8.00033 9.20004 8.00033 8.83337V6.16671C8.00033 5.80004 7.70033 5.50004 7.33366 5.50004H5.33366C4.96699 5.50004 4.66699 5.80004 4.66699 6.16671V8.83337C4.66699 9.20004 4.96699 9.50004 5.33366 9.50004ZM9.33366 9.50004H11.3337C11.7003 9.50004 12.0003 9.20004 12.0003 8.83337V6.16671C12.0003 5.80004 11.7003 5.50004 11.3337 5.50004H9.33366C8.96699 5.50004 8.66699 5.80004 8.66699 6.16671V8.83337C8.66699 9.20004 8.96699 9.50004 9.33366 9.50004ZM5.33366 4.83337H7.33366C7.70033 4.83337 8.00033 4.53337 8.00033 4.16671V1.50004C8.00033 1.13337 7.70033 0.833374 7.33366 0.833374H5.33366C4.96699 0.833374 4.66699 1.13337 4.66699 1.50004V4.16671C4.66699 4.53337 4.96699 4.83337 5.33366 4.83337ZM8.66699 1.50004V4.16671C8.66699 4.53337 8.96699 4.83337 9.33366 4.83337H11.3337C11.7003 4.83337 12.0003 4.53337 12.0003 4.16671V1.50004C12.0003 1.13337 11.7003 0.833374 11.3337 0.833374H9.33366C8.96699 0.833374 8.66699 1.13337 8.66699 1.50004Z" />
</svg>
