<svg width="24" height="24" viewBox="0 0 24 24" xmlns="http://www.w3.org/2000/svg">
  <path
    d="M4.21 3.93568C4.86122 2.86689 7.70751 2 12.0218 2C16.3361 2 19.1268 3.02943 19.8336 3.93568C20.8099 5.18751 19.2837 8.14497 14.6254 11.0325C10.6539 13.4944 7.72608 15.8882 10.0686 16.8386C15.6468 19.1024 12.6724 22 12.6724 22C12.6724 22 12.6724 20.0643 10.7192 19.4194C7.41801 18.3287 6.16244 17.4837 4.86029 16.1938C3.87536 15.2175 2.81522 12.137 6.16219 9.09698C7.8278 7.5844 2.96032 5.98633 4.20904 3.93554L4.21 3.93568ZM18.8861 4.51993C18.8861 3.48436 15.808 2.64493 12.0111 2.64493C8.21422 2.64493 5.13608 3.48436 5.13608 4.51993C5.13608 5.55551 8.21422 6.39494 12.0111 6.39494C15.808 6.39494 18.8861 5.55551 18.8861 4.51993Z"/>
</svg>
