<svg width="16" height="16" viewBox="0 0 16 16" xmlns="http://www.w3.org/2000/svg">
  <path
    d="M2.80618 2.62378C3.24032 1.91126 5.13785 1.33333 8.01405 1.33333C10.8902 1.33333 12.7507 2.01962 13.2219 2.62378C13.8728 3.45833 12.8553 5.42998 9.74976 7.35498C7.10214 8.99627 5.15023 10.5921 6.7119 11.2257C10.4307 12.7349 8.44776 14.6667 8.44776 14.6667C8.44776 14.6667 8.44776 13.3762 7.14566 12.9462C4.94485 12.2191 4.1078 11.6558 3.23971 10.7958C2.58309 10.145 1.87632 8.09132 4.10764 6.06465C5.21804 5.05626 1.97306 3.99088 2.80554 2.62369L2.80618 2.62378ZM12.5902 3.01328C12.5902 2.3229 10.5381 1.76328 8.0069 1.76328C5.47566 1.76328 3.42356 2.3229 3.42356 3.01328C3.42356 3.70367 5.47566 4.26329 8.0069 4.26329C10.5381 4.26329 12.5902 3.70367 12.5902 3.01328Z"/>
</svg>
