<svg width="24" height="24" viewBox="0 0 24 24" xmlns="http://www.w3.org/2000/svg">
  <path
    d="M22.0002 5.79749C21.265 6.12431 20.4737 6.34476 19.6435 6.44342C20.4912 5.93594 21.1412 5.13209 21.4477 4.17315C20.6548 4.64369 19.7771 4.98512 18.8421 5.16944C18.0939 4.37208 17.0273 3.87354 15.8471 3.87354C13.5813 3.87354 11.7443 5.71061 11.7443 7.97682C11.7443 8.29795 11.7804 8.61097 11.8506 8.9118C8.44037 8.74047 5.4166 7.1072 3.39277 4.62461C3.03956 5.23033 2.83738 5.93512 2.83738 6.68782C2.83738 8.1112 3.56166 9.36731 4.66269 10.103C3.99038 10.0814 3.35745 9.89672 2.80409 9.58939C2.80369 9.60644 2.80369 9.6239 2.80369 9.64135C2.80369 11.6291 4.21814 13.2871 6.09541 13.6647C5.75113 13.758 5.38859 13.8084 5.01427 13.8084C4.74957 13.8084 4.49258 13.7828 4.24209 13.7345C4.76459 15.3645 6.27972 16.5512 8.07499 16.5841C6.67069 17.6847 4.90181 18.3408 2.97907 18.3408C2.6482 18.3408 2.32138 18.3213 2.00024 18.2831C3.81662 19.4479 5.97321 20.1267 8.29016 20.1267C15.8378 20.1267 19.9646 13.8746 19.9646 8.45223C19.9646 8.2744 19.961 8.09699 19.9533 7.92079C20.7547 7.34348 21.4505 6.62042 22.0002 5.79749Z"/>
</svg>
