<svg width="16" height="16" viewBox="0 0 16 16" xmlns="http://www.w3.org/2000/svg">
  <path
    d="M14.6673 3.86491C14.1772 4.08279 13.6497 4.22976 13.0962 4.29553C13.6613 3.95721 14.0946 3.42131 14.299 2.78202C13.7704 3.09571 13.1852 3.32333 12.5619 3.44621C12.0631 2.91464 11.352 2.58228 10.5653 2.58228C9.05472 2.58228 7.83 3.80699 7.83 5.3178C7.83 5.53189 7.85409 5.74056 7.90091 5.94112C5.6274 5.8269 3.61156 4.73805 2.26234 3.08299C2.02686 3.48681 1.89208 3.95667 1.89208 4.45846C1.89208 5.40738 2.37493 6.24479 3.10895 6.73522C2.66074 6.72088 2.23879 6.59773 1.86988 6.39284C1.86961 6.40421 1.86961 6.41585 1.86961 6.42749C1.86961 7.75262 2.81258 8.85798 4.06409 9.10969C3.83458 9.17194 3.59288 9.2055 3.34334 9.2055C3.16687 9.2055 2.99554 9.18845 2.82855 9.15624C3.17688 10.2429 4.18697 11.0341 5.38381 11.056C4.44761 11.7897 3.26836 12.2271 1.98654 12.2271C1.76595 12.2271 1.54807 12.2141 1.33398 12.1887C2.5449 12.9652 3.98263 13.4177 5.52726 13.4177C10.559 13.4177 13.3102 9.24962 13.3102 5.63474C13.3102 5.51619 13.3078 5.39791 13.3027 5.28045C13.8369 4.89557 14.3008 4.41353 14.6673 3.86491Z"/>
</svg>
