<svg width="12" height="11" viewBox="0 0 12 11" xmlns="http://www.w3.org/2000/svg">
  <path
    d="M6.00002 5.5C7.47335 5.5 8.66669 4.30666 8.66669 2.83333C8.66669 1.36 7.47335 0.166664 6.00002 0.166664C4.52669 0.166664 3.33335 1.36 3.33335 2.83333C3.33335 4.30666 4.52669 5.5 6.00002 5.5ZM6.00002 1.5C6.73335 1.5 7.33335 2.1 7.33335 2.83333C7.33335 3.56666 6.73335 4.16666 6.00002 4.16666C5.26669 4.16666 4.66669 3.56666 4.66669 2.83333C4.66669 2.1 5.26669 1.5 6.00002 1.5ZM6.00002 6.16666C4.22002 6.16666 0.666687 7.06 0.666687 8.83333V10.1667C0.666687 10.5333 0.966687 10.8333 1.33335 10.8333H10.6667C11.0334 10.8333 11.3334 10.5333 11.3334 10.1667V8.83333C11.3334 7.06 7.78002 6.16666 6.00002 6.16666ZM10 9.5H2.00002V8.84C2.13335 8.36 4.20002 7.5 6.00002 7.5C7.80002 7.5 9.86669 8.36 10 8.83333V9.5Z"/>
</svg>
