<svg width="20" height="20" viewBox="0 0 20 20" xmlns="http://www.w3.org/2000/svg">
  <path
    d="M16.667 10.8333H2.50033C2.04199 10.8333 1.66699 11.2083 1.66699 11.6667V16.6667C1.66699 17.125 2.04199 17.5 2.50033 17.5H16.667C17.1253 17.5 17.5003 17.125 17.5003 16.6667V11.6667C17.5003 11.2083 17.1253 10.8333 16.667 10.8333ZM16.667 2.5H2.50033C2.04199 2.5 1.66699 2.875 1.66699 3.33333V8.33333C1.66699 8.79167 2.04199 9.16667 2.50033 9.16667H16.667C17.1253 9.16667 17.5003 8.79167 17.5003 8.33333V3.33333C17.5003 2.875 17.1253 2.5 16.667 2.5Z"/>
</svg>
