<svg width="24" height="24" viewBox="0 0 24 24" xmlns="http://www.w3.org/2000/svg">
  <path
    d="M20.4741 9.8338C19.9071 9.83807 19.4175 10.2781 19.1631 10.9249L17.9188 11.2376C17.7786 10.1269 17.3322 9.11146 16.6659 8.28133L17.757 7.60645C18.3996 7.87612 19.0572 7.82852 19.4539 7.42525C20.0405 6.83012 19.8421 5.6873 19.0118 4.86994C18.1838 4.05489 17.0365 3.87796 16.4522 4.47111C16.0534 4.87651 16.0188 5.53418 16.2969 6.17019L15.6393 7.27218C14.8113 6.63175 13.8107 6.20696 12.7194 6.07763L13.0234 4.83124C13.6703 4.5724 14.106 4.07871 14.106 3.51148C14.106 2.67689 13.1636 2 11.9992 2C10.8369 2 9.89478 2.67719 9.89478 3.51148C9.89478 4.07854 10.3304 4.57241 10.9751 4.83124L11.279 6.07763C10.1684 6.2091 9.1529 6.64915 8.31617 7.30894L7.64768 6.21339C7.92161 5.57296 7.88058 4.91527 7.47731 4.51417C6.88647 3.92543 5.74361 4.11304 4.91986 4.93893C4.09822 5.76057 3.91276 6.90553 4.50363 7.49638C4.90477 7.89751 5.56242 7.93642 6.20058 7.66248L7.29827 8.32672C6.64272 9.16345 6.20499 10.1811 6.07566 11.2938L4.82927 10.9941C4.5683 10.3473 4.07443 9.91384 3.50737 9.91599C2.67278 9.91599 1.99786 10.8604 2.00001 12.0249C2.00214 13.1872 2.68148 14.1272 3.51606 14.1272C4.08313 14.1251 4.577 13.6871 4.83351 13.0425L6.07776 12.7341C6.2135 13.8448 6.65566 14.8602 7.31777 15.697L6.22222 16.3676C5.58179 16.0937 4.9241 16.1368 4.52527 16.5401C3.93653 17.1331 4.12857 18.2759 4.95448 19.0975C5.78036 19.9169 6.92533 20.1002 7.51407 19.5072C7.91291 19.1061 7.95164 18.4484 7.67803 17.8103L8.33997 16.7104C9.17884 17.366 10.1987 17.7994 11.3092 17.9266L11.0115 19.173C10.3647 19.4361 9.9312 19.9321 9.93549 20.4991C9.93976 21.3337 10.8842 22.0065 12.0487 22C13.211 21.9957 14.151 21.3142 14.1467 20.4798C14.1425 19.9127 13.7046 19.421 13.0599 19.1644L12.7493 17.9202C13.86 17.782 14.8755 17.338 15.7079 16.6738L16.3807 17.7671C16.1089 18.4096 16.1544 19.0652 16.5575 19.464C17.1505 20.0506 18.2954 19.8564 19.1149 19.0284C19.93 18.2025 20.1112 17.0554 19.5182 16.4688C19.1149 16.07 18.4573 16.0332 17.819 16.3093L16.7191 15.6495C17.3726 14.8085 17.8039 13.7907 17.9288 12.6781L19.1752 12.9737C19.4404 13.6184 19.9364 14.0497 20.5035 14.0455C21.338 14.0412 22.0087 13.0922 22 11.928C21.9924 10.7655 21.3088 9.82964 20.4743 9.83388L20.4741 9.8338ZM10.851 15.5401C9.4217 15.5401 8.26346 14.3816 8.26346 12.9526C8.2633 11.5236 9.42187 10.3646 10.851 10.3646C12.2802 10.3646 13.4385 11.5232 13.4385 12.9521C13.4385 14.3812 12.28 15.5401 10.851 15.5401ZM14.373 10.7599C13.857 10.7599 13.4386 10.3415 13.4386 9.82548C13.4386 9.30947 13.857 8.89111 14.373 8.89111C14.889 8.89111 15.3074 9.30947 15.3074 9.82548C15.3074 10.3415 14.889 10.7599 14.373 10.7599Z"/>
</svg>
