<svg width="16" height="16" viewBox="0 0 16 16" xmlns="http://www.w3.org/2000/svg">
  <path
    d="M14.7793 6.2671C14.3256 6.27051 13.934 6.62253 13.7305 7.14001L12.7351 7.39015C12.6229 6.5016 12.2658 5.68923 11.7327 5.02512L12.6056 4.48522C13.1197 4.70095 13.6458 4.66288 13.9632 4.34026C14.4324 3.86416 14.2737 2.9499 13.6094 2.29601C12.947 1.64398 12.0292 1.50243 11.5618 1.97695C11.2427 2.30127 11.215 2.82741 11.4376 3.33622L10.9114 4.2178C10.249 3.70546 9.44857 3.36563 8.57555 3.26217L8.81873 2.26505C9.33621 2.05798 9.68482 1.66303 9.68482 1.20924C9.68482 0.541577 8.93086 6.10352e-05 7.9994 6.10352e-05C7.06951 6.10352e-05 6.31582 0.541812 6.31582 1.20924C6.31582 1.66289 6.6643 2.05799 7.18006 2.26505L7.42324 3.26217C6.5347 3.36734 5.72232 3.71938 5.05294 4.24721L4.51815 3.37077C4.73729 2.85843 4.70447 2.33228 4.38185 2.0114C3.90918 1.54041 2.99489 1.6905 2.33589 2.3512C1.67858 3.00852 1.53021 3.92449 2.00291 4.39716C2.32381 4.71807 2.84994 4.7492 3.36046 4.53004L4.23862 5.06144C3.71418 5.73082 3.36399 6.54491 3.26053 7.43513L2.26341 7.19538C2.05464 6.67789 1.65954 6.33114 1.20589 6.33285C0.538226 6.33285 -0.00171023 7.08838 4.07089e-06 8.01995C0.00171104 8.94984 0.545184 9.70181 1.21285 9.70181C1.6665 9.7001 2.0616 9.34978 2.26681 8.83404L3.26221 8.58732C3.3708 9.47587 3.72453 10.2882 4.25421 10.9576L3.37777 11.4941C2.86543 11.275 2.33928 11.3095 2.02022 11.6321C1.54922 12.1065 1.70286 13.0208 2.36358 13.6781C3.02429 14.3336 3.94026 14.4802 4.41126 14.0058C4.73032 13.6849 4.76131 13.1588 4.54243 12.6483L5.07198 11.7684C5.74307 12.2928 6.55898 12.6396 7.44739 12.7414L7.2092 13.7385C6.69172 13.9489 6.34496 14.3457 6.34839 14.7994C6.35181 15.467 7.10732 16.0053 8.03892 16C8.96881 15.9966 9.72078 15.4514 9.71739 14.7839C9.71397 14.3302 9.36367 13.9369 8.8479 13.7316L8.59948 12.7362C9.48802 12.6256 10.3004 12.2705 10.9663 11.7391L11.5046 12.6137C11.2871 13.1278 11.3235 13.6522 11.646 13.9713C12.1204 14.4406 13.0363 14.2852 13.6919 13.6228C14.344 12.9621 14.489 12.0444 14.0146 11.5751C13.6919 11.2561 13.1658 11.2267 12.6552 11.4475L11.7753 10.9197C12.298 10.2468 12.6431 9.43266 12.743 8.54254L13.7401 8.77902C13.9523 9.29478 14.3491 9.63983 14.8028 9.63643C15.4704 9.63302 16.0069 8.87381 16 7.94247C15.9939 7.01245 15.4471 6.26377 14.7794 6.26717L14.7793 6.2671ZM7.08077 10.8322C5.93736 10.8322 5.01077 9.90531 5.01077 8.76218C5.01064 7.61891 5.9375 6.69178 7.08077 6.69178C8.22417 6.69178 9.15076 7.61864 9.15076 8.76177C9.15076 9.90504 8.22403 10.8322 7.08077 10.8322ZM9.8984 7.00795C9.48559 7.00795 9.1509 6.67325 9.1509 6.26045C9.1509 5.84764 9.48559 5.51295 9.8984 5.51295C10.3112 5.51295 10.6459 5.84764 10.6459 6.26045C10.6459 6.67325 10.3112 7.00795 9.8984 7.00795Z"/>
</svg>
