<svg width="16" height="16" viewBox="0 0 16 16" fill="none" xmlns="http://www.w3.org/2000/svg">
<path d="M1.78419 3.98154C2.25043 3.98154 2.96088 3.98154 3.3605 3.98154C3.56032 3.98154 3.71573 4.11475 3.78233 4.29236C3.98215 4.8696 4.42618 6.13509 4.93682 7.00095C5.62506 8.13323 6.0691 8.55506 6.35772 8.51066C6.64634 8.44405 6.55753 7.6892 6.55753 7.08976C6.55753 6.49031 6.62414 5.46904 6.33551 5.00281L5.89148 4.35896C5.78048 4.20355 5.89148 4.00374 6.0691 4.00374H8.60008C8.84429 4.00374 9.04411 4.20355 9.04411 4.44777V7.667C9.04411 7.667 9.15511 8.24424 9.77676 7.6448C10.3984 7.04535 11.0644 5.93528 11.6195 4.803L11.8415 4.27016C11.9081 4.11475 12.0635 4.00374 12.2411 4.00374H13.884C14.1949 4.00374 14.4169 4.31456 14.3059 4.60318L14.1283 5.06941C14.1283 5.06941 13.5288 6.2683 12.9072 7.11196C12.2855 7.97782 12.1523 8.17763 12.2411 8.39965C12.3299 8.62167 13.9285 10.1092 14.3281 10.8196C14.4391 11.0194 14.5279 11.197 14.6167 11.3525C14.7721 11.6411 14.5501 12.0185 14.2171 12.0185H12.3521C12.1967 12.0185 12.0413 11.9297 11.9747 11.7965L11.7971 11.5079C11.7971 11.5079 10.6648 10.1758 9.97657 9.75395C9.26612 9.35432 9.28832 9.93156 9.28832 9.93156V11.1082C9.28832 11.5967 8.88869 11.9963 8.40026 11.9963H7.95623C7.95623 11.9963 5.51406 11.9963 3.56032 9.0879C2.02841 6.82334 1.51777 5.35803 1.34016 4.51437C1.29576 4.24796 1.49557 3.98154 1.78419 3.98154Z" fill="black"/>
</svg>
