<svg width="24" height="24" viewBox="0 0 24 24" xmlns="http://www.w3.org/2000/svg">
  <path
    d="M2.67507 5.97217C3.37442 5.97217 4.44009 5.97217 5.03954 5.97217C5.33926 5.97217 5.57237 6.17198 5.67228 6.4384C5.972 7.30426 6.63805 9.2025 7.404 10.5013C8.43638 12.1997 9.10242 12.8325 9.53535 12.7658C9.96828 12.6659 9.83507 11.5337 9.83507 10.6345C9.83507 9.73533 9.93498 8.20343 9.50205 7.50408L8.836 6.53831C8.66949 6.30519 8.836 6.00547 9.10242 6.00547H12.8989C13.2652 6.00547 13.5649 6.30519 13.5649 6.67152V11.5004C13.5649 11.5004 13.7315 12.3662 14.6639 11.4671C15.5964 10.5679 16.5955 8.90278 17.428 7.20436L17.761 6.4051C17.8609 6.17198 18.0941 6.00547 18.3605 6.00547H20.8249C21.2911 6.00547 21.6241 6.4717 21.4576 6.90463L21.1912 7.60398C21.1912 7.60398 20.292 9.40231 19.3595 10.6678C18.4271 11.9666 18.2273 12.2663 18.3605 12.5993C18.4937 12.9324 20.8915 15.1636 21.4909 16.2293C21.6574 16.529 21.7906 16.7954 21.9238 17.0285C22.1569 17.4615 21.8239 18.0276 21.3244 18.0276H18.527C18.2939 18.0276 18.0608 17.8944 17.9609 17.6946L17.6944 17.2617C17.6944 17.2617 15.996 15.2635 14.9636 14.6308C13.898 14.0313 13.9313 14.8972 13.9313 14.8972V16.6622C13.9313 17.3949 13.3318 17.9943 12.5992 17.9943H11.9331C11.9331 17.9943 8.26986 17.9943 5.33926 13.6317C3.04139 10.2349 2.27544 8.03691 2.00902 6.77142C1.94242 6.3718 2.24214 5.97217 2.67507 5.97217Z"/>
</svg>
