<svg width="14" height="10" viewBox="0 0 14 10" xmlns="http://www.w3.org/2000/svg">
  <path
    d="M0.78346 0.981537C1.24969 0.981537 1.96014 0.981537 2.35977 0.981537C2.55959 0.981537 2.715 1.11475 2.7816 1.29236C2.98142 1.8696 3.42545 3.13509 3.93608 4.00095C4.62433 5.13323 5.06836 5.55506 5.35698 5.51066C5.6456 5.44405 5.5568 4.6892 5.5568 4.08976C5.5568 3.49031 5.6234 2.46904 5.33478 2.00281L4.89075 1.35896C4.77974 1.20355 4.89075 1.00374 5.06836 1.00374H7.59934C7.84356 1.00374 8.04337 1.20355 8.04337 1.44777V4.667C8.04337 4.667 8.15438 5.24424 8.77603 4.6448C9.39767 4.04535 10.0637 2.93528 10.6188 1.803L10.8408 1.27016C10.9074 1.11475 11.0628 1.00374 11.2404 1.00374H12.8833C13.1941 1.00374 13.4162 1.31456 13.3051 1.60318L13.1275 2.06941C13.1275 2.06941 12.5281 3.2683 11.9064 4.11196C11.2848 4.97782 11.1516 5.17763 11.2404 5.39965C11.3292 5.62167 12.9277 7.10917 13.3273 7.81962C13.4384 8.01943 13.5272 8.19705 13.616 8.35246C13.7714 8.64108 13.5494 9.01851 13.2163 9.01851H11.3514C11.196 9.01851 11.0406 8.9297 10.974 8.79649L10.7964 8.50787C10.7964 8.50787 9.66409 7.17578 8.97584 6.75395C8.26539 6.35432 8.28759 6.93156 8.28759 6.93156V8.10824C8.28759 8.59668 7.88796 8.9963 7.39953 8.9963H6.9555C6.9555 8.9963 4.51332 8.9963 2.55959 6.0879C1.02768 3.82334 0.517042 2.35803 0.339429 1.51437C0.295026 1.24796 0.49484 0.981537 0.78346 0.981537Z"/>
</svg>
