<svg width="20" height="20" viewBox="0 0 20 20" xmlns="http://www.w3.org/2000/svg">
  <path
    d="M14.0726 4.2207C13.5126 3.3967 12.8726 2.6287 12.1526 1.9407C11.8726 1.6687 11.4006 1.9247 11.4806 2.3087C11.6326 3.0607 11.7926 4.0527 11.7926 4.9407C11.7926 6.5887 10.7126 7.9247 9.06459 7.9247C7.83259 7.9247 6.82459 7.1807 6.38459 6.1167C6.30459 5.9567 6.27259 5.8607 6.22459 5.6847C6.13659 5.3487 5.69659 5.2447 5.50459 5.5407C5.36059 5.7567 5.22459 5.9727 5.09659 6.2047C4.14459 7.8367 3.60059 9.7407 3.60059 11.7727C3.60059 15.3087 6.46459 18.1727 10.0006 18.1727C13.5366 18.1727 16.4006 15.3087 16.4006 11.7727C16.4006 8.9807 15.5366 6.3887 14.0726 4.2207ZM9.76859 15.7727C8.34459 15.7727 7.19259 14.6527 7.19259 13.2607C7.19259 11.9647 8.03259 11.0527 9.44059 10.7647C10.6166 10.5247 11.8246 10.0207 12.6646 9.2287C12.8886 9.0207 13.2566 9.1167 13.3206 9.4127C13.5046 10.2287 13.6006 11.0767 13.6006 11.9327C13.6086 14.0527 11.8886 15.7727 9.76859 15.7727Z"/>
</svg>
