<svg width="24" height="24" viewBox="0 0 24 24" xmlns="http://www.w3.org/2000/svg">
  <path
    d="M17.09 4.77566C16.39 3.74566 15.59 2.78566 14.69 1.92566C14.34 1.58566 13.75 1.90566 13.85 2.38566C14.04 3.32566 14.24 4.56566 14.24 5.67566C14.24 7.73566 12.89 9.40566 10.83 9.40566C9.29 9.40566 8.03 8.47566 7.48 7.14566C7.38 6.94566 7.34 6.82566 7.28 6.60566C7.17 6.18566 6.62 6.05566 6.38 6.42566C6.2 6.69566 6.03 6.96566 5.87 7.25566C4.68 9.29566 4 11.6757 4 14.2157C4 18.6357 7.58 22.2157 12 22.2157C16.42 22.2157 20 18.6357 20 14.2157C20 10.7257 18.92 7.48566 17.09 4.77566V4.77566ZM11.71 19.2157C9.93 19.2157 8.49 17.8157 8.49 16.0757C8.49 14.4557 9.54 13.3157 11.3 12.9557C12.77 12.6557 14.28 12.0257 15.33 11.0357C15.61 10.7757 16.07 10.8957 16.15 11.2657C16.38 12.2857 16.5 13.3457 16.5 14.4157C16.51 17.0657 14.36 19.2157 11.71 19.2157V19.2157Z"/>
</svg>
