<svg width="256" height="256" viewBox="0 0 256 256" fill="none" xmlns="http://www.w3.org/2000/svg">
<g clip-path="url(#clip0_132_6727)">
<path d="M0 32C0 14.3269 14.3269 0 32 0H224C241.673 0 256 14.3269 256 32V224C256 241.673 241.673 256 224 256H32C14.3269 256 0 241.673 0 224V32Z" fill="#E41D1D"/>
<path d="M150.668 54H202.203V61.8989C199.571 63.9775 196.662 65.8483 193.475 67.5112C190.289 69.0356 187.311 70.2135 184.54 71.0449V202H166.877L93.5218 95.9888L85.2096 79.9831H84.5862L86.4564 96.6124V183.292C89.2272 183.985 92.2749 185.163 95.5998 186.826C99.0632 188.35 101.972 189.944 104.328 191.607V199.506H53V191.607C55.4936 189.944 58.1951 188.419 61.1044 187.034C64.1521 185.509 67.2692 184.262 70.4555 183.292V69.7978C67.6848 68.6891 64.9141 67.442 62.1434 66.0562C59.3727 64.6704 56.879 63.2154 54.6624 61.691V54H99.5481L159.188 140.472L168.747 158.348H169.578L168.539 140.472V71.0449C165.214 69.9363 161.959 68.6199 158.772 67.0955C155.724 65.4326 153.023 63.7004 150.668 61.8989V54Z" fill="white"/>
</g>
<defs>
<clipPath id="clip0_132_6727">
<rect width="256" height="256" fill="white"/>
</clipPath>
</defs>
</svg>
