<svg width="80" height="80" viewBox="0 0 80 80" fill="none" xmlns="http://www.w3.org/2000/svg"><circle cx="40" cy="40" r="20" fill="#fff"/><path d="M64.2519 32.1201C66.2562 38.2885 65.8346 44.9888 63.0731 50.8574C60.3116 56.7259 55.4176 61.3217 49.3872 63.7093" stroke="#fff" stroke-width="5"/><path d="M22.9372 21.0498C27.7571 16.7099 34.0496 14.3698 40.534 14.5056C47.0185 14.6414 53.2075 17.243 57.8414 21.7809" stroke="#fff" stroke-width="5"/><path d="M30.4475 63.6432C24.434 61.2135 19.5722 56.5837 16.8517 50.696C14.1312 44.8083 13.7564 38.1052 15.8037 31.9509" stroke="#fff" stroke-width="5"/><path opacity="0.5" d="M69.9583 30.266C72.4341 37.8858 71.9134 46.1626 68.5021 53.412C65.0907 60.6615 59.0452 66.3386 51.5959 69.288" stroke="#fff" stroke-width="5"/><path opacity="0.5" d="M18.9224 16.5909C24.8764 11.2299 32.6495 8.33912 40.6597 8.50691C48.6699 8.6747 56.3151 11.8885 62.0394 17.4941" stroke="#fff" stroke-width="5"/><path opacity="0.5" d="M28.1999 69.2063C20.7714 66.205 14.7656 60.4858 11.405 53.2127C8.04439 45.9397 7.58145 37.6594 10.1104 30.057" stroke="#fff" stroke-width="5"/><path opacity="0.25" d="M75.6646 28.4119C78.612 37.483 77.9921 47.3365 73.931 55.9667C69.8699 64.597 62.6729 71.3554 53.8047 74.8666" stroke="#fff" stroke-width="5"/><path opacity="0.25" d="M14.9076 12.1321C21.9957 5.74989 31.2494 2.30847 40.7853 2.50822C50.3213 2.70797 59.4227 6.53388 66.2374 13.2073" stroke="#fff" stroke-width="5"/><path opacity="0.25" d="M25.9523 74.7694C17.1088 71.1964 9.95908 64.3878 5.95834 55.7294C1.9576 47.0711 1.40649 37.2135 4.41715 28.1632" stroke="#fff" stroke-width="5"/></svg>
